<svg xmlns="http://www.w3.org/2000/svg" version="1.1" xmlns:xlink="http://www.w3.org/1999/xlink" xmlns:svgjs="http://svgjs.dev/svgjs" width="1440" height="560" preserveAspectRatio="none" viewBox="0 0 1440 560">
    <g mask="url(&quot;#SvgjsMask1102&quot;)" fill="none">
        <rect width="1440" height="560" x="0" y="0" fill="rgba(21, 67, 96, 0.55)"></rect>
        <path d="M0,459.787C92.651,464.836,198.391,479.057,269.774,419.777C340.739,360.844,333.986,252.408,357.219,163.137C376.307,89.79,402.672,18.65,393.753,-56.613C384.687,-133.112,356.123,-206.66,306.42,-265.514C256.337,-324.818,183.204,-352.976,113.918,-387.97C29.042,-430.838,-52.115,-514.288,-144.892,-493.457C-237.22,-472.726,-281.527,-367.759,-332.153,-287.813C-376.498,-217.786,-414.555,-143.029,-419.208,-60.273C-423.637,18.502,-384.981,89.308,-357.518,163.273C-327.732,243.496,-317.385,336.74,-251.517,391.369C-183.257,447.982,-88.551,454.961,0,459.787" fill="rgba(14, 44, 62, 0.55)"></path>
        <path d="M1440 972.5360000000001C1515.345 956.134 1544.972 865.393 1605.843 818.057 1659.196 776.567 1735.55 768.065 1774.216 712.631 1815.842 652.952 1840.862 575.606 1824.386 504.734 1808.211 435.154 1744.701 388.828 1688.648 344.54499999999996 1640.623 306.60400000000004 1582.583 290.851 1525.55 268.645 1462.542 244.11200000000002 1402.049 190.93200000000002 1336.475 207.425 1270.839 223.933 1240.687 297.826 1198.647 350.866 1158.549 401.456 1110.291 447.572 1096.1979999999999 510.569 1081.542 576.084 1098.801 642.562 1119.076 706.561 1141.687 777.934 1162.562 854.229 1220.2069999999999 902.004 1280.675 952.1179999999999 1363.262 989.241 1440 972.5360000000001" fill="rgba(28, 90, 130, 0.55)"></path>
    </g>
    <defs>
        <mask id="SvgjsMask1102">
            <rect width="1440" height="560" fill="#ffffff"></rect>
        </mask>
    </defs>
</svg>