<?xml version="1.0" encoding="utf-8"?>
<!-- Generator: Adobe Illustrator 27.5.0, SVG Export Plug-In . SVG Version: 6.00 Build 0)  -->
<svg version="1.1" xmlns="http://www.w3.org/2000/svg" xmlns:xlink="http://www.w3.org/1999/xlink" x="0px" y="0px"
	 viewBox="0 0 750 500" style="enable-background:new 0 0 750 500;" xml:space="preserve">
<g id="BACKGROUND">
	<rect style="fill:transparent;" width="750" height="500"/>
</g>
<g id="OBJECTS_1_">
	<path style="fill:#9FDAE0;" d="M689.202,411.861H61.675c0,0,1.427-192.013,146.266-145.296
		c144.839,46.717,59.527-185.214,227.34-192.291c167.813-7.077,112.374,199.869,176.07,211.403S689.202,411.861,689.202,411.861z"/>
	<g>
		<path style="fill:#EB8A2D;" d="M645.851,242.346c1.115,4.601-5.529,10.16-14.839,12.417c-9.311,2.257-17.763,0.357-18.878-4.244
			c-1.115-4.601,5.528-10.16,14.839-12.417C636.284,235.845,644.736,237.745,645.851,242.346z"/>
		
			<rect x="611.167" y="242.43" transform="matrix(0.9719 -0.2356 0.2356 0.9719 -39.9011 154.9509)" style="fill:#EB8A2D;" width="34.694" height="4.06"/>
		
			<ellipse transform="matrix(0.9719 -0.2356 0.2356 0.9719 -39.6134 154.8455)" style="fill:#F2BF3D;" cx="628.209" cy="243.202" rx="17.347" ry="8.572"/>
		<path style="fill:#EB8A2D;" d="M640.281,240.275c0.799,3.295-3.959,7.276-10.626,8.892c-6.667,1.616-12.72,0.256-13.519-3.039
			c-0.799-3.295,3.959-7.276,10.626-8.892C633.43,235.62,639.483,236.98,640.281,240.275z"/>
		<path style="fill:#EB702D;" d="M627.283,239.38c5.926-1.437,11.363-0.52,13.06,2.015c0.044-0.379,0.027-0.754-0.062-1.12
			c-0.799-3.295-6.851-4.655-13.519-3.039c-6.667,1.616-11.425,5.597-10.626,8.892c0.089,0.366,0.246,0.707,0.458,1.024
			C616.943,244.122,621.356,240.817,627.283,239.38z"/>
	</g>
	<g>
		<polygon style="fill:#6D95CE;" points="583.47,152.739 594,164.462 521.608,238.022 475.062,203.837 412.474,283.579 
			314.487,235.279 142.172,403.367 242.045,403.367 331.416,291.232 414.929,329.166 484.974,238.826 526.543,265.742 
			601.974,171.139 611.252,180.624 612.771,150.144 		"/>
	</g>
	<ellipse style="fill:#75C0D1;" cx="374.982" cy="421.325" rx="324.185" ry="34.181"/>
	<g>
		<path style="fill:#669EE3;" d="M123.17,273.348c-19.371-0.411-35.465,15.014-35.876,34.385
			c-0.411,19.371,15.014,35.465,34.385,35.876c19.371,0.411,35.465-15.014,35.876-34.385
			C157.966,289.852,142.541,273.759,123.17,273.348z M123.368,330.181L123.368,330.181c-11.986,0.521-22.125-8.773-22.646-20.759v0
			c-0.521-11.986,8.773-22.125,20.759-22.646l0,0c11.986-0.521,22.125,8.773,22.646,20.759l0,0
			C144.649,319.521,135.354,329.66,123.368,330.181z"/>
		<path style="fill:#669EE3;" d="M188.876,298.118c-0.643-1.176-1.753-1.274-4.746-1.508c-3.699-0.289-7.409-0.448-11.099-0.812
			c-0.674-0.066-1.592-0.694-1.865-1.302c-1.763-3.919-3.3-7.94-5.089-11.846c-0.521-1.137-0.597-1.844,0.213-2.84
			c2.851-3.508,5.608-7.093,8.396-10.651c0.452-0.577,0.884-1.17,1.651-2.188c-4.9-4.598-9.746-9.145-14.713-13.805
			c-4.155,3.583-7.986,6.779-11.678,10.126c-1.302,1.18-2.213,1.468-3.957,0.629c-3.565-1.714-7.366-2.931-11.025-4.46
			c-0.561-0.234-1.178-1-1.266-1.594c-0.672-4.537-1.352-9.081-1.746-13.647c-0.189-2.191-1.117-2.902-3.135-2.828
			c-0.776,0.029-1.561-0.223-2.343-0.347c-3.51,0.078-7.02,0.156-10.53,0.234c-0.376,0.124-0.744,0.314-1.13,0.363
			c-4.044,0.518-3.396,0.186-3.707,3.983c-0.379,4.626-0.681,9.257-0.972,13.276c-5.295,2.38-10.243,4.604-15.354,6.901
			c-4.365-3.419-8.925-6.991-13.516-10.586c-5.471,4.153-9.858,9.103-13.763,14.663c3.532,4.081,6.966,8.068,10.429,12.03
			c0.621,0.711,0.848,1.226,0.394,2.263c-1.779,4.059-3.457,8.171-4.953,12.341c-0.431,1.202-0.971,1.513-2.091,1.645
			c-4.624,0.546-9.235,1.199-13.858,1.764c-1.148,0.14-1.734,0.51-1.907,1.809c-0.776,5.827-0.297,11.58,0.68,17.33
			c0.193,1.138,0.879,1.289,1.855,1.349c4.515,0.275,9.023,0.659,13.539,0.902c1.301,0.07,1.891,0.431,2.399,1.773
			c1.757,4.637,3.783,9.171,5.862,14.112c-3.107,3.967-6.633,8.469-10.159,12.969c4.208,5.589,8.992,10.259,14.684,14.069
			c4.434-3.876,8.748-7.646,12.655-11.061c4.559,1.616,8.759,3.228,13.046,4.561c1.62,0.504,2.259,1.213,2.421,2.878
			c0.433,4.433,1.039,8.849,1.621,13.266c0.115,0.873,0.017,2.02,1.457,1.977c5.857-0.175,11.715-0.343,17.572-0.52
			c1.245-0.038,1.667-0.703,1.735-1.934c0.255-4.582,0.71-9.155,0.887-13.739c0.068-1.769,0.911-2.313,2.374-2.9
			c3.612-1.45,7.213-2.981,10.637-4.82c1.476-0.792,2.224-0.715,3.45,0.302c3.938,3.267,8.005,6.379,11.939,9.485
			c3.61-2.047,11.698-10.701,13.993-14.913c-3.439-3.905-6.876-7.889-10.421-11.774c-0.887-0.972-0.827-1.639-0.354-2.795
			c1.527-3.729,2.79-7.565,4.279-11.31c0.25-0.63,1.069-1.363,1.71-1.455c4.074-0.585,8.17-1.027,12.263-1.469
			c2.289-0.247,3.213-0.338,3.651-1.211L188.876,298.118z M151.161,338.46c-8.008,7.676-18.527,11.773-29.617,11.538
			s-21.425-4.775-29.101-12.784c-7.676-8.008-11.773-18.527-11.538-29.617c0.235-11.09,4.775-21.425,12.784-29.101
			c8.008-7.676,18.527-11.773,29.617-11.538c11.09,0.235,21.425,4.775,29.101,12.784c7.676,8.008,11.773,18.526,11.538,29.617
			C163.709,320.449,159.169,330.784,151.161,338.46z"/>
	</g>
	<g>
		<path style="fill:#669EE3;" d="M272.389,226.118c-0.451-0.826-1.231-0.895-3.333-1.059c-2.598-0.203-5.203-0.315-7.795-0.57
			c-0.474-0.047-1.118-0.488-1.31-0.914c-1.238-2.753-2.318-5.577-3.574-8.32c-0.366-0.798-0.419-1.295,0.149-1.995
			c2.003-2.464,3.939-4.981,5.897-7.481c0.317-0.405,0.621-0.822,1.159-1.536c-3.442-3.229-6.845-6.422-10.333-9.696
			c-2.919,2.516-5.609,4.761-8.202,7.112c-0.914,0.829-1.554,1.031-2.779,0.442c-2.503-1.204-5.173-2.058-7.743-3.133
			c-0.394-0.165-0.828-0.702-0.889-1.119c-0.472-3.186-0.95-6.378-1.226-9.584c-0.133-1.539-0.784-2.038-2.202-1.986
			c-0.545,0.02-1.097-0.156-1.645-0.243c-2.465,0.055-4.931,0.11-7.396,0.165c-0.264,0.087-0.523,0.22-0.794,0.255
			c-2.84,0.364-2.385,0.131-2.603,2.797c-0.267,3.249-0.478,6.501-0.683,9.324c-3.719,1.671-7.194,3.233-10.784,4.846
			c-3.065-2.401-6.268-4.91-9.492-7.435c-3.842,2.917-6.924,6.393-9.666,10.298c2.481,2.866,4.892,5.666,7.324,8.449
			c0.437,0.499,0.596,0.861,0.277,1.589c-1.25,2.851-2.428,5.738-3.479,8.668c-0.303,0.844-0.682,1.062-1.469,1.155
			c-3.248,0.383-6.486,0.842-9.732,1.239c-0.807,0.098-1.218,0.358-1.339,1.27c-0.545,4.092-0.208,8.133,0.478,12.171
			c0.136,0.799,0.618,0.906,1.303,0.947c3.171,0.193,6.337,0.463,9.508,0.634c0.914,0.049,1.328,0.303,1.685,1.245
			c1.234,3.256,2.657,6.441,4.117,9.911c-2.182,2.786-4.659,5.948-7.135,9.109c2.955,3.926,6.315,7.205,10.313,9.881
			c3.114-2.722,6.144-5.37,8.888-7.768c3.202,1.135,6.151,2.267,9.162,3.203c1.138,0.354,1.586,0.852,1.701,2.021
			c0.304,3.113,0.73,6.215,1.139,9.317c0.081,0.613,0.012,1.419,1.023,1.388c4.114-0.123,8.228-0.241,12.341-0.365
			c0.874-0.026,1.171-0.493,1.219-1.358c0.179-3.218,0.499-6.43,0.623-9.649c0.048-1.242,0.64-1.624,1.667-2.037
			c2.536-1.018,5.066-2.094,7.47-3.385c1.036-0.556,1.562-0.502,2.423,0.212c2.766,2.294,5.622,4.48,8.385,6.661
			c2.535-1.438,8.215-7.516,9.828-10.473c-2.415-2.742-4.829-5.541-7.319-8.269c-0.623-0.683-0.581-1.151-0.249-1.963
			c1.072-2.619,1.959-5.313,3.005-7.943c0.176-0.442,0.751-0.957,1.201-1.022c2.861-0.41,5.738-0.721,8.613-1.031
			c1.607-0.173,2.257-0.237,2.564-0.85L272.389,226.118z M239.657,247.936c-3.884,3.723-8.986,5.711-14.366,5.596
			c-5.379-0.114-10.392-2.316-14.115-6.201c-3.723-3.884-5.711-8.986-5.596-14.366c0.114-5.379,2.316-10.392,6.201-14.115
			c3.885-3.723,8.986-5.711,14.366-5.597c5.379,0.114,10.392,2.316,14.115,6.201c3.723,3.884,5.711,8.986,5.596,14.366
			C245.744,239.2,243.542,244.213,239.657,247.936z"/>
	</g>
	<g>
		<path style="fill:#669EE3;" d="M173.137,194.637c-0.299-0.546-0.814-0.592-2.204-0.701c-1.718-0.135-3.441-0.208-5.156-0.377
			c-0.313-0.031-0.739-0.322-0.866-0.605c-0.819-1.82-1.533-3.688-2.364-5.503c-0.242-0.528-0.277-0.857,0.099-1.319
			c1.324-1.629,2.605-3.295,3.9-4.948c0.21-0.268,0.41-0.543,0.767-1.016c-2.276-2.136-4.527-4.247-6.834-6.412
			c-1.93,1.664-3.709,3.149-5.424,4.704c-0.605,0.548-1.028,0.682-1.838,0.292c-1.656-0.796-3.421-1.361-5.121-2.072
			c-0.261-0.109-0.547-0.464-0.588-0.74c-0.312-2.107-0.628-4.218-0.811-6.339c-0.088-1.018-0.519-1.348-1.456-1.314
			c-0.36,0.013-0.725-0.104-1.088-0.161c-1.63,0.036-3.261,0.072-4.891,0.109c-0.175,0.058-0.346,0.146-0.525,0.169
			c-1.878,0.24-1.577,0.087-1.722,1.85c-0.176,2.148-0.316,4.3-0.452,6.166c-2.46,1.105-4.758,2.138-7.132,3.205
			c-2.027-1.588-4.146-3.247-6.278-4.917c-2.541,1.929-4.579,4.228-6.393,6.811c1.641,1.896,3.236,3.747,4.844,5.588
			c0.289,0.33,0.394,0.57,0.183,1.051c-0.826,1.885-1.606,3.795-2.301,5.732c-0.2,0.559-0.451,0.703-0.971,0.764
			c-2.148,0.254-4.29,0.557-6.437,0.82c-0.533,0.065-0.805,0.237-0.886,0.84c-0.361,2.706-0.138,5.379,0.316,8.049
			c0.09,0.529,0.409,0.599,0.862,0.626c2.097,0.128,4.191,0.306,6.289,0.419c0.604,0.033,0.878,0.2,1.115,0.824
			c0.816,2.154,1.757,4.26,2.723,6.555c-1.443,1.843-3.081,3.934-4.719,6.024c1.954,2.596,4.177,4.765,6.821,6.535
			c2.06-1.8,4.063-3.551,5.878-5.138c2.118,0.751,4.069,1.5,6.06,2.118c0.752,0.234,1.049,0.564,1.125,1.337
			c0.201,2.059,0.483,4.11,0.753,6.162c0.053,0.405,0.008,0.938,0.677,0.918c2.721-0.081,5.441-0.16,8.162-0.242
			c0.578-0.018,0.774-0.326,0.806-0.898c0.118-2.128,0.33-4.252,0.412-6.382c0.032-0.822,0.423-1.074,1.103-1.347
			c1.678-0.674,3.351-1.385,4.941-2.239c0.685-0.368,1.033-0.332,1.603,0.14c1.829,1.518,3.719,2.963,5.546,4.406
			c1.677-0.951,5.433-4.971,6.5-6.927c-1.597-1.814-3.194-3.664-4.841-5.469c-0.412-0.452-0.384-0.762-0.165-1.298
			c0.709-1.732,1.296-3.514,1.988-5.253c0.116-0.293,0.497-0.633,0.794-0.676c1.892-0.272,3.795-0.477,5.696-0.682
			c1.063-0.115,1.492-0.157,1.696-0.562L173.137,194.637z M151.49,209.067c-2.569,2.462-5.943,3.777-9.501,3.701
			c-3.558-0.075-6.873-1.532-9.335-4.101c-2.462-2.569-3.777-5.943-3.701-9.501c0.076-3.558,1.532-6.873,4.101-9.336
			c2.569-2.462,5.943-3.777,9.501-3.701c3.558,0.076,6.873,1.532,9.335,4.101c2.462,2.569,3.777,5.943,3.701,9.501
			C155.515,203.289,154.059,206.605,151.49,209.067z"/>
	</g>
	<g>
		<path style="fill:#E0896E;" d="M441.633,261.381c-0.89,1.9-1.708,3.821-2.416,5.77c-0.886,2.436-0.727,5.646,1.461,7.035
			c2.176,1.381,5.042,0.228,7.22-1.15c5.579-3.529,11.44-8.871,13.2-15.392c1.437-5.324,2.225-10.996,3.377-16.411
			c0.835-3.924,4.563-11.488-1.557-11.385c-5.044,0.085-8.036,6.296-9.817,9.952C449.592,247.002,445.071,254.042,441.633,261.381z"
			/>
		<path style="fill:#214A81;" d="M446.009,247.18c-0.847,1.664-1.622,3.665-0.778,5.332c1.528,3.018,6.712,2.119,8.52,4.978
			c2.281-4.628,4.562-9.257,6.843-13.885c0.855-1.736,1.722-3.505,2.02-5.417c0.298-1.912-0.054-4.023-1.379-5.433
			C456.139,227.329,447.94,243.385,446.009,247.18z"/>
		<g id="POLYLINE_6_">
			<path style="fill:#E0896E;" d="M444.132,265.022c-0.902-0.412-1.796-0.827-2.671-1.276c-4.174-2.138-7.975-4.888-12.076-7.144
				c-2.621-1.373-5.199-2.834-7.805-4.235c-1.945-1.046-4.297-3.206-6.449-3.642c-0.451,1.649,0.296,3.283,1.259,4.582
				c-3.869,0.525-7.736,1.272-11.674,1.691c-0.589,1.621,0.036,3.52,1.267,4.729c1.23,1.208,2.964,1.796,4.681,1.953
				c4.474,0.407,9.199-1.633,13.573-0.092c2.926,1.031,5.303,4.279,7.558,6.372c3.263,3.034,6.515,5.997,9.978,8.795
				c2.483-0.691,3.509-2.166,4.057-4.684C446.378,269.553,446.475,266.094,444.132,265.022z"/>
		</g>
		<g id="POLYLINE_5_">
			<path style="fill:#214A81;" d="M481.538,404.333c1.417,2.835,6.494,12.796,3.062,15.345c-0.486,0.361-1.064,0.57-1.634,0.775
				c-1.26,0.453-2.519,0.905-3.779,1.358c-7.627,2.757-14.379,3.815-22.435,4.453c-0.773,0.061-1.63,0.098-2.234-0.389
				c-2.763-2.229,2.82-2.79,3.704-3.22c2.479-1.205,4.88-4.213,6.707-6.225c2.427-2.673,4.644-5.235,6.359-8.426
				c1.09-2.03,0.378-1.967,2.201-3.228c0.482-0.333,7.189-2.118,7.221-2.056C480.981,403.236,481.259,403.775,481.538,404.333z"/>
		</g>
		<g id="POLYLINE_9_">
			<path style="fill:#5679CC;" d="M450.168,312.754c0.016-0.739,0.024-1.483,0.041-2.221l24.014-21.023
				c0.561,0.869,1.083,1.766,1.563,2.681c1.976,3.785,3.06,7.944,3.189,12.209c0.115,3.875-0.548,7.706-1.513,11.45
				c-1.104,4.305-2.336,8.566-3.238,12.917c-0.973,4.723-1.788,9.539-3.185,14.166c-1.104,3.656-2.72,7.108-2.534,11.013
				c0.076,1.636,0.239,3.372,0.824,4.912c0.587,1.549,1.65,2.862,2.638,4.166c2.408,3.185,4.657,6.397,6.295,10.056
				c1.718,3.815,2.45,7.752,2.79,11.897c0.362,4.404,0.487,8.935,1.506,13.255c0.35,1.474,1.087,2.797,1.47,4.255
				c0.314,1.19,0.262,2.462,0.107,3.676l-10.433,2.433c-0.467-1.101-0.836-2.251-1.02-3.434c-0.228-1.456-0.124-2.941-0.316-4.405
				c-0.441-3.336-1.709-6.33-3.244-9.291c-1.796-3.469-3.583-6.94-5.149-10.525c-1.43-3.268-2.65-6.693-4.507-9.746
				c-1.776-2.935-4.355-5.14-6.57-7.71c-1.337-1.553-2.305-3.217-2.523-5.279c-0.187-1.721,0.014-3.466,0.091-5.191
				c0.071-1.469,0.05-2.944,0.002-4.413c-0.139-4.226-0.287-8.45-0.352-12.674c-0.142-8.064,1.102-17.055-0.191-24.909
				c-1.232-7.483-2.606-13.892,3.33-20.128c5.434-5.709,14.784-7.212,21.733-3.493c0.518,1.35-0.036,3.028-1.256,3.803"/>
		</g>
		<g id="POLYLINE_4_">
			<path style="fill:#214A81;" d="M469.575,409.548c0.762,3.077,3.534,13.908-0.373,15.643c-0.553,0.246-1.163,0.323-1.764,0.398
				c-1.328,0.166-2.656,0.331-3.985,0.497c-7.15,0.892-14.084,1.123-21.275,1.202c-3.336,0.036-7.901-1.703-2.322-3.752
				c3.817-1.401,7.545-3.489,10.863-5.822c2.954-2.077,5.678-4.091,8.05-6.829c1.509-1.742,0.8-1.837,2.855-2.667
				c0.543-0.22,7.478-0.492,7.497-0.425C469.271,408.356,469.425,408.943,469.575,409.548z"/>
		</g>
		<g id="POLYLINE_3_">
			<path style="fill:#669EE3;" d="M464.762,289.929c4.719-3.149,14.075-4.716,18.907-0.733c5.001,4.123,1.739,10.472,0.485,16.743
				c-3.376,16.881-11.45,29.888-17.234,45.47c-3.066,8.262,2.015,14.522,3.745,22.277c2.38,10.672-0.792,21.252-0.407,31.875
				c0.044,1.23-0.285,2.46-0.704,3.609l-10.713,0.08c-0.214-1.177-0.321-2.38-0.241-3.574c0.098-1.47,0.526-2.896,0.659-4.367
				c0.303-3.351-0.276-6.55-1.123-9.776c-1.731-6.597-3.191-14.399-5.447-21.271c-2.477-7.546-5.015-11.603-4.158-19.706
				c1.352-12.79,5.979-24.83,8.005-37.461C457.903,304.584,456.584,295.387,464.762,289.929z"/>
		</g>
		<path style="fill:#5679CC;" d="M453.288,300.227c3.294,3.736,7.677,6.572,12.529,7.697c4.852,1.125,10.16,0.464,14.418-2.121
			c1.586-0.963,3.068-2.247,3.768-3.965c0.7-1.718,0.423-3.927-1.024-5.089c-1.118-0.898-2.653-1.017-4.085-1.099
			c-9.712-0.554-19.424-1.107-29.137-1.661c0.368,4.883,4.377,9.253,9.21,10.042"/>
		<g id="POLYLINE_2_">
			<path style="fill:#214A81;" d="M485.157,279.491c0.365,2.805,0.747,5.617,1.002,8.443c0.402,4.447,0.434,8.002-3.109,11.093
				c-3.044,2.656-7.259,3.527-11.295,3.702c-11.703,0.506-29.826-3.039-24.713-17.613c2.421-6.901,3.412-16.143,2.83-23.432
				c-0.306-3.826-1.102-7.607-1.238-11.443c-0.259-7.306,3.434-10.459,6.761-16.242c2.836-4.927,6.076-8.813,11.838-10.196
				c4.535-1.088,8.796,0.202,12.815,2.637c1.543,0.934,4.92,2.498,5.748,4.135c0.942,1.863-0.37,5.195-0.547,7.168
				c-0.881,9.794-0.921,19.637-1.12,29.462C484.131,271.305,484.624,275.392,485.157,279.491z"/>
		</g>
		<path style="fill:#1E4375;" d="M472.207,254.788c0.492,1.983,1.622,3.739,2.734,5.453c2.623,4.044,5.293,8.075,8.028,12.066
			c0.602-4.034,1.205-8.069,1.805-12.103c0.554-3.727,0.101-6.535,0.101-10.222c-0.334-2.27-0.749-4.616-2.057-6.503
			C476.617,234.532,470.916,249.583,472.207,254.788z"/>
		<path style="fill:#EB8A2D;" d="M479.921,199.252c1.892,0.596,3.706,1.906,4.661,3.264c1.703,2.423,2.2,5.508,2.14,8.469
			c-0.059,2.961-0.624,5.889-0.834,8.843c-0.211,2.954-0.041,6.032,1.271,8.687c-0.287-0.581-2.785-1.496-3.419-1.957
			c-1.146-0.834-2.194-1.8-3.129-2.865c-1.871-2.132-3.287-4.671-4.099-7.389c-0.412-1.38-0.411-2.809-0.748-4.18
			c-0.303-1.233-0.964-1.896-1.52-3.03c-1.215-2.479-1.314-5.984,0.2-8.356C475.679,198.803,477.847,198.599,479.921,199.252z"/>
		<g id="POLYLINE_111_">
			<path style="fill:#F2BF3D;" d="M479.796,204.57c0,5.589-1.669,12.313-6.442,12.749c-4.842,0.437-10.285-1.824-13.972-4.812
				c-3.202-2.6-5.676-6.2-6.928-10.139v-0.01c-0.078-0.252-0.155-0.514-0.223-0.767c-0.67-2.474-0.087-4.686,1.203-6.588
				c0.999-1.484,2.435-2.785,4.036-3.881c0.631-0.437,1.349-0.699,2.076-0.931c1.077-0.34,1.999-0.825,2.998-1.339
				c5.579-2.92,11.226,0.912,14.447,5.792c0.854,1.281,1.533,2.629,2.008,3.949c0.223,0.64,0.417,1.446,0.543,2.367
				C479.709,202.038,479.796,203.27,479.796,204.57z"/>
		</g>
		<path style="fill:#FFCCA3;" d="M475.628,225.88c0.69-1.38-1.245-7.724-1.366-9.449c-0.234-3.337-0.022-6.669,0.016-10.005
			c-1.464,0.404-12.755,5.263-12.836,4.787c0.619,3.639,1.664,7.391,2.132,11.009c0.321,2.483-0.698,6.504,1.756,8.232
			C468.81,232.903,474.18,228.96,475.628,225.88z"/>
		<path style="fill:#E0896E;" d="M463.575,222.221c0,0,6.889-1.192,8.853-5.053c1.964-3.861,0.926,0.153,0.926,0.153
			s-1.889,11.291-9.175,11.195L463.575,222.221z"/>
		<g id="POLYLINE_110_">
			<path style="fill:#FFCCA3;" d="M455.729,199.189c-0.75,3.056-0.837,6.404-0.679,9.533c0.15,2.974,0.806,5.891,2.193,8.539
				c1.041,1.986,2.543,4.216,4.707,5.092c1.854,0.75,3.867,0.149,5.57-0.715c1.941-0.984,3.949-2.451,4.907-4.47
				c0.808-1.702,0.357-3.31,0.497-5.09c-0.057,0.728,0.742,1.323,1.467,1.229c0.725-0.094,1.299-0.702,1.566-1.382
				c0.267-0.68,0.285-1.428,0.299-2.159c0.012-0.639,0.021-1.298-0.213-1.893c-0.234-0.595-0.776-1.117-1.415-1.125
				c-0.639-0.008-1.247,0.681-1.005,1.273c0.006-3.846-2.84-8.884-6.213-10.84c-1.901-1.102-4.289-2.221-6.548-1.875
				c-1.711,0.262-4.015,1.209-4.805,2.892C455.912,198.513,455.813,198.851,455.729,199.189z"/>
		</g>
		<path style="fill:#F2BF3D;" d="M474.276,200.355c-0.222-1.172-0.563-2.277-1.169-3.127c-2.108-2.955-5.566-4.905-9.186-5.179
			c-3.867-0.293-13.337,2.962-9.602,8.456c1.06,1.56,2.879,2.4,4.635,3.088c5.079,1.989,10.797,3.314,15.94,1.497
			C474.661,203.713,474.582,201.971,474.276,200.355z"/>
		<path style="fill:#FFD959;" d="M479.459,200.875c-8.757,2.948-18.36,0.774-27.071-2.25c-0.335-5.065,4.136-2.653,7.106-2.223
			c4.192,0.607,8.481,0.493,12.628-0.379c1.581-0.33,3.211-0.776,4.871-1.378c0.854,1.281,1.533,2.629,2.008,3.949
			C479.271,199.343,479.456,200.084,479.459,200.875z"/>
	</g>
	<g>
		<g>
			<rect x="492.279" y="375.702" style="fill:#FFFFFF;" width="151.422" height="43.766"/>
			<polygon style="fill:#CEE0F0;" points="560.17,419.468 597.876,376.744 643.701,376.744 643.701,419.468 			"/>
		</g>
		<path style="fill:#A3BDD4;" d="M504.573,412.438c0,2.482-2.012,4.494-4.494,4.494c-2.482,0-4.494-2.012-4.494-4.494
			c0-2.482,2.012-4.494,4.494-4.494C502.561,407.944,504.573,409.956,504.573,412.438z"/>
		<circle style="fill:#214A81;" cx="500.079" cy="412.438" r="2.973"/>
		<path style="fill:#214A81;" d="M519.068,412.438c0,2.482-2.012,4.494-4.494,4.494c-2.482,0-4.494-2.012-4.494-4.494
			c0-2.482,2.012-4.494,4.494-4.494C517.057,407.944,519.068,409.956,519.068,412.438z"/>
	</g>
	<path style="fill:none;stroke:#214A81;stroke-miterlimit:10;" d="M497.825,412.438h-3.68c-10.073,0-18.238-8.165-18.238-18.238
		v-58.793c0-10.073-8.166-18.238-18.238-18.238h-23.902"/>
	<rect x="426.848" y="311.749" style="fill:#A3BDD4;" width="6.918" height="9.903"/>
	<g>
		<g>
			<path style="fill:#FC8DDE;" d="M272.455,440.337c9.065-15.689,24.264-33.952,48.092-41.247l-19.127-75.297
				c0,0-17.329,36.892-45.631,112.872c-1.5,4.026,3.752,7.611,7.654,7.611h2.556C268.616,444.276,271.035,442.793,272.455,440.337z"
				/>
			<path style="fill:#FCBDF8;" d="M301.42,323.793c0,0-17.329,36.892-45.631,112.872c-1.186,3.184,1.852,6.085,5.105,7.162
				c10.297-37.057,27.205-71.16,44.299-105.18L301.42,323.793z"/>
			<path style="fill:#FC8DDE;" d="M260.894,443.827c0.86,0.285,1.734,0.449,2.549,0.449h2.556c2.616,0,5.036-1.483,6.455-3.939
				c9.065-15.689,24.264-33.953,48.092-41.247l-15.354-60.443C288.099,372.667,271.192,406.77,260.894,443.827z"/>
			<path style="fill:#EA62FC;" d="M455.382,440.337c-9.065-15.689-24.264-33.952-48.092-41.247l19.127-75.297
				c0,0,17.329,36.892,45.631,112.872c1.5,4.026-3.751,7.611-7.655,7.611h-2.556C459.221,444.276,456.8,442.793,455.382,440.337z"/>
			<path style="fill:#214A81;" d="M385.713,421.325H340.3c-1.792,0-3.345-1.386-3.741-3.338l-2.493-12.287
				c-0.544-2.682,1.28-5.234,3.741-5.234h50.4c2.461,0,4.285,2.552,3.741,5.234l-2.493,12.287
				C389.058,419.939,387.505,421.325,385.713,421.325z"/>
			<path style="fill:#FFFFFF;" d="M297.604,294.844c0,0,6.97,71.507,28.513,116.818c0,0,34.217-18.408,74.769,0
				c0,0,24.712-38.232,29.781-122.482c2.921-48.546-0.567-103.973-14.957-151.728H315.206
				C301.829,176.354,292.305,228.595,297.604,294.844z"/>
			<path style="fill:#FFFFFF;" d="M427.457,194.26c-2.567-19.457-6.444-38.605-11.883-56.656H315.071
				c-13.377,38.902-22.901,91.143-17.602,157.392c0,0,2.366,24.203,8.578,53.36C365.953,323.266,409.81,262.908,427.457,194.26z"/>
			<path style="fill:#FC8DDE;" d="M355.954,60.123c-10.11,12.78-27.443,38.393-40.883,77.48h100.504
				c-9.209-30.559-22.872-57.981-42.213-78.426C368.383,53.916,360.493,54.386,355.954,60.123z"/>
			<path style="fill:#FC8DDE;" d="M365.912,55.601c-3.634-0.271-7.349,1.224-9.958,4.522c-10.11,12.779-27.443,38.393-40.884,77.48
				h58.856c1.588-2.48,2.788-5.394,3.502-8.584C379.974,101.999,375.654,77.54,365.912,55.601z"/>
			
				<ellipse transform="matrix(0.498 -0.8671 0.8671 0.498 85.4289 349.092)" style="fill:#FCBDF8;" cx="344.252" cy="100.755" rx="25.098" ry="8.398"/>
			<path style="fill:#EA62FC;" d="M373.361,59.178c-2.116-2.237-4.762-3.376-7.45-3.576c9.742,21.939,14.062,46.398,11.517,73.418
				c-0.714,3.191-1.914,6.104-3.502,8.584h41.648C406.366,107.044,392.702,79.622,373.361,59.178z"/>
			<path style="fill:#FC8DDE;" d="M370.178,437.956c7.5-30.219,14.586-84.838-7.934-146.417c0,0-25.422,64.601-6.966,146.198
				c0.867,3.833,3.94,6.539,7.478,6.539l0,0C366.226,444.276,369.251,441.691,370.178,437.956z"/>
			<path style="fill:#FC8DDE;" d="M361.541,293.462c-3.678,10.423-20.282,62.702-9.252,129.01
				C364.876,381.205,365.229,337.329,361.541,293.462z"/>
			<path style="fill:#EA62FC;" d="M362.244,291.538c0,0-0.263,0.676-0.703,1.923c3.688,43.867,3.335,87.743-9.252,129.01
				c0.834,5.012,1.823,10.104,2.99,15.264c0.867,3.833,3.94,6.539,7.478,6.539c3.469,0,6.494-2.585,7.421-6.32
				C377.679,407.737,384.764,353.118,362.244,291.538z"/>
			<circle style="fill:#FC8DDE;" cx="365.416" cy="218.761" r="43.328"/>
			
				<ellipse transform="matrix(0.3145 -0.9493 0.9493 0.3145 42.8301 496.8323)" style="fill:#214A81;" cx="365.416" cy="218.761" rx="30.08" ry="30.08"/>
			<path style="fill:#3464A3;" d="M367.609,188.792c-8.32,16.866-15.686,33.923-24.026,50.62c3.695,3.905,8.43,6.794,13.751,8.286
				c6.977-18.782,15.178-36.764,23.784-54.561C377.132,190.694,372.536,189.148,367.609,188.792z"/>
			<path style="fill:#214A81;" d="M381.118,193.136c-8.605,17.798-16.807,35.779-23.784,54.561c2.575,0.722,5.275,1.144,8.082,1.144
				c16.613,0,30.08-13.467,30.08-30.08C395.495,207.907,389.739,198.417,381.118,193.136z"/>
			<path style="fill:#214A81;" d="M365.415,188.681c-16.613,0-30.08,13.467-30.08,30.08c0,8.005,3.148,15.261,8.247,20.651
				c8.34-16.697,15.706-33.754,24.026-50.62C366.882,188.739,366.156,188.681,365.415,188.681z"/>
		</g>
	</g>
	<g>
		<g>
			<g>
				<g>
					<path style="fill:#1E4375;" d="M596.302,268.961c1.74,7.525,3.46,15.055,5.159,22.59c0.363,1.607,1.514,4.207,1.311,5.825
						c-0.159,1.269-1.332,1.501-2.642,1.776c-2.74,0.576-5.568,0.133-8.335,0.133c-3.244,0-6.544,0.177-9.784,0
						c-3.966-0.217-6.656-3.909-7.164-7.643c-0.451-3.315,0.436-6.65,1.314-9.879c0.884-3.249,1.751-6.503,2.554-9.774
						c0.481-1.96,0.97-3.927,1.327-5.914c0.352-1.956-1.321-3.946,0.683-5.53c1.192-0.942,2.813-1.07,4.329-1.161
						c2.097-0.125,4.307-0.229,6.185,0.712C594.391,261.673,595.509,265.529,596.302,268.961z"/>
					<path style="fill:#5679CC;" d="M571.088,297.177c-1.72,3.42-2.115,7.792-3.336,11.593c-4.9,15.242-12.197,29.714-21.568,42.697
						c2.834,2.715,7.639,2.249,10.872,0.026c3.233-2.223,5.267-5.763,7.193-9.182c4.984-8.849,10.471-17.576,15.015-26.657
						c1.44-2.878,1.755-5.637,2.672-8.659c0.993-3.273,3.593-6.883,3.593-10.394c-0.033-5.646-5.314-5.991-9.495-4.199
						C573.609,293.439,572.113,295.139,571.088,297.177z"/>
					<path style="fill:#435CBF;" d="M567.247,319.029c-0.217-8.596,5.386-16.211,7.162-24.625
						c-0.613,10.051-0.672,20.136-0.175,30.194c0.151,3.07-1.648,6.709-4.373,3.498C567.982,325.881,567.317,321.82,567.247,319.029
						z"/>
					<path style="fill:#C050CF;" d="M567.255,353.561c0,0-21.078,2.502-21.081,2.503c-5.2,0.617-20.302,6.101-12.541,12.794
						c1.518,1.309,3.407,2.101,5.283,2.809c4.161,1.572,8.436,2.838,12.78,3.794c4.601,1.013,7.349,0.246,11.892-0.31
						c8.22-1.005,16.44-2.011,24.659-3.016l17.102-18.574H567.255z"/>
					<path style="display:none;fill:#C23E3E;" d="M534.022,359.594c-0.707,0.712-1.254,1.537-1.567,2.498
						c1.601-2.325,4.892-1.115,6.816,0.03c2.562,1.524,5.028,3.46,7.076,5.625c2.064,2.182,2.575,5.699,5.591,6.387
						c7.077,1.613,18.115,4.04,24.071-0.75c2.996-2.409,5.525-5.666,6.921-9.258c0.358-0.922,2.441-10.377,0.588-10.435
						c-7.765-0.246-15.405-1.582-23.064-0.428c-5.141,0.775-10.361,0.936-15.471,1.929
						C541.682,355.832,536.701,356.899,534.022,359.594z"/>
					<path style="fill:#C050CF;" d="M595.654,359.918c0.907,0.493,1.9,1.166,1.999,2.194c0.075,0.78-0.428,1.525-1.08,1.958
						c-0.652,0.434-1.436,0.615-2.201,0.78c-5.122,1.105-12.133,4.937-17.091,1.772c-3.203-2.045-5.104-9.55-5.236-13.042
						c0.015,0.384,10.595,1.578,11.441,1.769C587.725,356.307,591.835,357.843,595.654,359.918z"/>
					<path style="fill:#FC8DDE;" d="M567.552,373.495c1.117,2.266,3.608,4.48,6.371,5.827c6.628,3.232,14.656,2.397,21.657,1.08
						c4.839-0.91,9.323-2.932,11.157-7.662c1.379-3.555,2.666-11.585-1.896-13.619c-4.437-1.978-14.739,3.572-19.42,3.907
						c-8.203,0.589-10.991,2.703-12.991,3.195C566.953,367.57,566.113,370.576,567.552,373.495z"/>
					<path style="fill:#FFFFFF;" d="M610.463,347.339c0.209,3.656,0.317,7.319,0.296,10.981c-0.031,5.528-4.645,6.533-9.144,3.927
						c-4.66-2.7-9.526-5.342-14.984-5.865c-7.863-0.752-8.379-2.69-8.315-11.202c0.063-8.323-3.694-15.878-5.972-23.703
						c-1.065-3.657-2.283-8.063-2.028-11.906c0.277-4.179,2.718-8.594,4.283-12.51c3.282-8.21,14.677-7.782,21.859-6.8
						c4.027,0.55,8.537,0.793,11.05,4.158c3.409,4.565,3.797,11.038,2.545,16.398c-1.573,6.74-4.477,13.512-3.254,20.324
						c0.793,4.419,3.05,7.679,3.397,12.207C610.297,344.676,610.387,346.007,610.463,347.339z"/>
					<path style="fill:#D6D6D6;" d="M611.446,359.132c0.174,2.731-1.611,5.874-3.148,7.748c-5.568-2.382-10.184-6.404-16.168-7.997
						c-6.967-1.854-14.291-1.854-21.417-2.583c-4.928-0.528,0.195-8.7,1.347-10.966c1.999-3.929,3.548-9.547,3.162-13.962
						c7.18,3.962,17.125,7.812,21.56,14.89c1.6,2.553,3.367,6.106,6.149,7.597c2.504,1.342,5.741,0.195,7.653,2.804
						C611.127,357.404,611.39,358.246,611.446,359.132z"/>
					<path style="fill:#5679CC;" d="M586.916,291.438c-0.102,0.657-5.672,2.199-6.281,4.107c-0.609,1.908-4.729,14.412-4.729,14.412
						l2.267,25.759l-3.545,21.971l-8.772-2.36l5.898-25.973l-2.075-21.485l6.354-15.47c0,0,3.566-2.51,9.495-2.658
						C591.458,289.595,586.916,291.438,586.916,291.438z"/>
					<path style="fill:#669EE3;" d="M594.722,288.994c0,0-7.794,14.174-7.494,23.105c0.424,12.621-2.477,26.54,1.249,39.158
						c1.433,4.854,4.999,8.094,8.693,11.299c1.645,1.428,4.38,3.161,5.362,5.157c1.132,2.301-0.162,4.851,2,7.091
						c1.443,1.495,3.539,2.221,5.61,2.399c2.071,0.178,4.148-0.142,6.202-0.46c-3.261,0.505-3.79-22.28-4.049-24.57
						c-1.294-11.423-2.639-22.891-4.233-34.233c-0.331-2.351-0.382-25.513-1.744-25.874L594.722,288.994z"/>
					<path style="fill:#5679CC;" d="M605.226,305.315c-1.819,7.435-3.66,14.897-6.37,22.068c-1.375,3.637-2.966,7.199-4.888,10.582
						c-1.467,2.583-2.352,5.497-3.784,7.945c-0.076,0.129-3.396-8.389-3.549-9.6c-0.567-4.465,1.408-5.833,4.116-9.251
						C596.164,320.226,601.011,312.946,605.226,305.315z"/>
					<path style="fill:#5679CC;" d="M588.479,351.255c-0.056,0.184,3.125,5.293,3.37,5.695c1.539,2.53,3.438,4.842,5.626,6.838
						c0.238,0.217,6.356-10.314,6.825-11.31c2.065-4.382,3.452-8.917,4.669-13.591c1.47-5.645,0.445-10.791-0.296-16.5
						C608.673,322.387,588.791,350.808,588.479,351.255z"/>
					<path style="fill:#669EE3;" d="M604.129,292.087c-5.347,1.276-2.744,10.67-3.021,14.555c-0.287,4.026-0.621,8.278-2.164,12.048
						c-2.301,5.622-5.608,10.82-9.379,15.565c-5.864,7.379-12.893,13.736-19.886,20.056c1.309-1.183,7.793,1.127,9.635,1.013
						c3.886-0.241,7.877-2.467,11.117-4.467c9.927-6.127,17.018-15.979,20.645-26.982c1.817-5.513,2.789-11.305,2.916-17.107
						c0.107-4.891-0.289-9.508-4.174-12.95c-1.519-1.346-3.616-2.184-5.599-1.751C604.189,292.073,604.159,292.08,604.129,292.087z"
						/>
					<path style="fill:#E37028;" d="M576.079,262.534c-0.201,1.076-0.319,2.167-0.356,3.262c-0.079,2.344,0.237,3.732,1.561,5.772
						c0.927-2.835,1.855-5.67,2.782-8.505c0.364-1.112,0.732-2.286,0.495-3.431c-0.462-2.239-2.526-3.184-3.456-0.75
						C576.652,260.067,576.311,261.29,576.079,262.534z"/>
					<path style="fill:#FABB8A;" d="M595.768,291.093c-0.735,2.267-3.001,3.505-5.195,4.009c-1.385,0.325-6.065,0.924-7.01-0.262
						c-0.651-0.808-0.073-1.983,0.388-2.917c0.42-0.85,0.703-1.721,0.871-2.603c0.535-2.749-0.084-5.541-1.438-8.038
						c0.01-0.01,0.01-0.01,0-0.01c-0.199-0.388-0.42-0.745-0.651-1.112c-0.01,0-0.01-0.01-0.01-0.01l0.493-0.273
						c0.168-0.074,0.336-0.126,0.514-0.178c1.144-0.346,2.372-0.231,3.578-0.409c2.141-0.304,4.302-0.997,6.422-1.595
						c0.388-0.115,0.766-0.22,1.144-0.325C592.116,278.102,596.376,289.225,595.768,291.093z"/>
					<path style="fill:#E0896E;" d="M593.732,277.693c-1.826,6.454-7.062,10.4-8.909,11.627c0.535-2.749-0.084-5.541-1.438-8.038
						c0.01-0.01,0.01-0.01,0-0.01c-0.304-0.85-0.577-1.07-0.651-1.112c-0.01,0-0.01-0.01-0.01-0.01l0.493-0.273
						c0.168-0.074,0.336-0.126,0.514-0.178c1.144-0.346,2.372-0.231,3.578-0.409C589.45,278.983,591.612,278.291,593.732,277.693z"
						/>
					<path style="fill:#FABB8A;" d="M598.389,263.372c1.711,3.579,0.798,6.612-0.172,10.172c-0.613,2.248-3.009,6.375-6.056,4.829
						c-0.109,0.176-0.169,0.358-0.256,0.547c-2.105,4.57-10.283,8.96-14.153,4.004c-2.996-3.837-2.99-10.215-2.186-14.777
						c0.069-0.391,0.146-0.758,0.23-1.097c0.546-2.194,1.088-4.918,2.243-6.882c0.774-1.317,2.146-2.016,3.589-2.58
						C587.458,255.311,595.568,257.471,598.389,263.372z"/>
					<path style="fill:#214A81;" d="M607.783,292.835c-1.228-0.745-2.823-0.357-4.114,0.252c-2.214,1.049-3.578,1.69-6.003,0.84
						c-1.878-0.661-3.432-2.193-4.365-3.935c-1.847-3.4-1.742-6.737-1.406-10.4c0.325-3.526,2.518-6.905,2.12-10.473
						c-0.105-0.923-0.283-1.742-0.199-2.655c0.021-0.168,0.052-0.336,0.084-0.514c-0.031,0.168-0.073,0.336-0.105,0.504
						c-0.399,1.931-0.787,3.862-1.186,5.782c-1.186-0.829-2.424-1.249-3.673-1.952c-1.836-1.018-1.427-0.336-1.532-2.382
						c-0.042-0.913,0.168-1.941,0.399-2.949c0.147-0.672,0.315-1.333,0.409-1.931c-0.22,0.619-0.441,1.228-0.661,1.847
						c-0.483,1.354-0.976,2.718-1.459,4.072c-1.459-0.493-2.907-0.987-4.355-1.48c0.22-1.637,0.441-3.264,0.661-4.901
						c0.105-0.777,0.21-1.564,0.315-2.34c-0.304,0.672-0.598,1.343-0.902,2.015c-0.651,1.459-1.312,2.907-1.962,4.366
						c-2.025-0.525-4.051-1.049-6.076-1.574c0.021-2.498,0.871-4.953,2.309-6.978c0.21-0.294,0.43-0.588,0.661-0.861
						c1.773-2.099,3.243-2.34,5.31-2.949c0.399-0.116,0.808-0.252,1.259-0.409c2.162-0.766,3.883-1.469,6.181-1.501
						c3.662-0.042,9.434,1.784,8.962,6.454c0.441-0.042,0.881-0.01,1.301,0.105c0.588,0.157,1.144,0.462,1.627,0.861
						c0.409,0.336,0.756,0.745,1.028,1.196c0.997,1.668,0.892,3.725,0.755,5.677c-0.052,0.63-0.105,1.249-0.115,1.836
						c-0.084,2.854,0.053,5.709,0.409,8.532c0.346,2.823,0.903,5.625,1.669,8.374c0.378,1.364,0.808,2.728,1.291,4.061
						C606.671,290.107,607.174,292.468,607.783,292.835z"/>
					<path style="fill:#EA62FC;" d="M569.015,366.106c2.509,1.26,13.203,5.503,13.158,8.956c-0.02,1.559-1.365,2.848-2.851,3.319
						c-1.486,0.471-3.089,0.305-4.639,0.134c-4.685-0.517-9.372-1.033-14.032-1.746c-6.887-1.053-13.709-2.534-20.413-4.431
						c-4.364-1.235-20.51-10.033-10.382-15.34c1.113-0.583,2.405-0.701,3.66-0.76c7.998-0.378,14.637,1.935,22.114,4.366
						C560.222,362.098,564.7,363.939,569.015,366.106z"/>
				</g>
				<g>
					<rect x="557.325" y="354.567" style="fill:#1E4375;" width="37.164" height="2.841"/>
					<path style="fill:#1E4375;" d="M523.476,357.233l-11.808-26.705c-0.457-1.034,0.3-2.196,1.431-2.196h50.824
						c0.63,0,1.198,0.378,1.442,0.959l11.912,28.398L523.476,357.233z"/>
					<path style="fill:#214A81;" d="M520.827,357.233l-11.808-26.705c-0.457-1.034,0.3-2.196,1.43-2.196h50.824
						c0.63,0,1.198,0.378,1.442,0.959l11.912,28.398L520.827,357.233z"/>
					<path style="fill:#FFFFFF;" d="M545.092,340.662c0.862,2.603-0.235,5.307-2.45,6.041c-2.215,0.733-4.709-0.782-5.571-3.385
						c-0.862-2.603,0.235-5.308,2.45-6.041C541.736,336.544,544.23,338.059,545.092,340.662z"/>
				</g>
			</g>
			<path style="fill:#4ABA59;" d="M600.121,353.54"/>
			<path style="fill:#3464A3;" d="M603.166,266.621c-3.106,0.388-6.254,0.325-9.35-0.157c0,0-0.01-0.01-0.021-0.01
				c-2.036-0.315-4.04-0.818-5.992-1.501c-0.084-0.021-0.168-0.053-0.252-0.084c-1.773-0.619-3.505-1.396-5.153-2.309
				c-0.199-0.105-0.399-0.22-0.588-0.325c-2.057-1.186-3.988-2.581-5.73-4.187c0.21-0.294,0.43-0.588,0.661-0.861
				c1.773-2.099,3.243-2.34,5.31-2.949c0.745,0.546,1.543,1.018,2.361,1.438c2.592,1.322,5.425,2.088,8.238,2.854
				c2.508,0.682,5.068,1.375,7.671,1.301c0.357-0.01,0.703-0.042,1.06-0.084c0.409,0.336,0.756,0.745,1.028,1.196
				C603.407,262.613,603.302,264.669,603.166,266.621z"/>
		</g>
		<path style="fill:#FC8DDE;" d="M557.762,424.552c1.436,0.691,3.366,0.228,4.619-0.855c3.858-3.335,6.453-9.655,9.014-14.071
			c4.336-7.476,22.271-36.676,8.088-43.507c-2.15-1.036-4.826-0.336-6.685,1.161c-1.858,1.498-3.047,3.66-4.058,5.822
			c-4.602,9.84-5.896,20.51-8.968,30.813C558.865,406.958,553.46,422.479,557.762,424.552z"/>
		<path style="fill:#FABB8A;" d="M556.161,421.241l-12.843,10.893c0,0,6.692,8.066,10.91,5.547
			c4.218-2.519,8.153-13.983,8.153-13.983L556.161,421.241z"/>
		<path style="fill:#214A81;" d="M546.894,431.921c0.032,0.125,0.074,0.247,0.127,0.366c1.26,2.837,6.059,1.583,8.066,0.35
			c2.364-1.452,4.122-3.684,6.102-5.628c-2.146,5.134-3.963,12.54-10.14,14.253c-3.701,1.027-8.902-1.178-9.455-5.332
			c-0.683-5.137,5.43-7.775,8.827-10.263C548.912,426.773,546.337,429.735,546.894,431.921z"/>
	</g>
	<g>
		<polygon style="fill:#FFB980;" points="232.059,243.488 217.112,251.211 220.396,256.826 232.059,247.697 		"/>
		<path style="fill:#FFB980;" d="M231.291,245.54c0,0,3.301-9.192,4.622-9.853s7.266-2.312,7.266-2.312L231.291,245.54z"/>
		<polygon style="fill:#214A81;" points="225.097,252.328 249.512,225.571 274.871,236.84 250.018,264.063 		"/>
		<polygon style="fill:#FFFFFF;" points="231.291,250.459 249.984,229.848 269.032,238.312 250.009,259.273 		"/>
		<path style="fill:#FC8DDE;" d="M261.517,247.697l-18.338-20.569c0,0,1.032-1.557,1.404-1.557s17.96,20.561,17.96,20.561
			l0.31,1.977L261.517,247.697z"/>
		<g>
			<g id="POLYLINE_1_">
				<path style="fill:#435CBF;" d="M203.258,423.854c0.416,0.551,0.838,1.141,1.309,1.75c1.083,1.398,2.707,2.611,4.441,3.05
					c1.956,0.495,2.226,0.828,3.725,2.302c-6.133,1.586-12.535,2.125-18.847,1.586c-2.549-0.218-5.053-0.843-4.469-3.949
					c0.251-1.338,0.503-2.675,0.754-4.013c0.19-1.013,0.381-2.026,0.571-3.04c0.236-1.259,5.969-1.102,6.932-1.057
					C200.545,420.616,201.867,422.012,203.258,423.854z"/>
			</g>
			<g id="POLYLINE_1066_">
				<path style="fill:#435CBF;" d="M199.486,435.891c4.188,0,8.311-0.023,12.486-0.345c1.183-1.252,0.344-3.466-1.126-4.362
					c-1.471-0.896-3.287-0.914-4.996-1.124c-2.967-0.365-5.852-1.39-8.383-2.982c-1.435-0.902-2.804-2.004-4.452-2.404
					c-4.773-1.159-4.527,4.111-4.374,7.296c0.045,0.947,0.056,2.207,0.763,2.952c0.837,0.881,2.416,0.896,3.527,0.945
					C195.111,435.963,197.306,435.896,199.486,435.891z"/>
			</g>
			<g id="POLYLINE_1065_">
				<path style="fill:#1E4375;" d="M189.385,420.729c0.196,1.244-0.259,2.434-0.286,3.672c-0.009,0.392,0.007,0.882,0.342,1.148
					c0.561,0.446,1.648,0.175,2.256,0.114c2.035-0.203,4.08,0.073,6.118-0.094c1.852-0.152,3.795-0.629,5.426-1.544
					c2.44-1.369-1.125-20.573-1.139-24.396c-0.029-7.46-0.165-15.83,0.853-23.566c1.156-8.785,5.26-16.532,7.601-24.927
					c2.675-9.594,3.548-20.067,5.245-29.885c0.563-3.255,1.124-6.609,0.41-9.833c-1.737-7.839-14.434-9.45-20.07-4.575
					c-2.923,2.528-3.366,6.821-3.603,10.678c-0.886,14.402-0.82,28.977-2.688,43.246
					C187.253,380.609,186.26,400.886,189.385,420.729z"/>
			</g>
			<g id="POLYLINE_1062_">
				<path style="fill:#669EE3;" d="M221.631,422.722c1.824,2.013,3.374,4.331,5.665,5.845c1.113,0.736,1.364,1.454,2.316,2.389
					c-6.133,1.586-12.535,2.125-18.847,1.586c-1.82-0.155-3.859-0.533-4.876-2.049c-0.99-1.475-0.62-3.437-0.212-5.166
					c0.366-1.553,0.863-3.285,2.263-4.051c0.656-0.359,1.424-0.446,2.17-0.497C213.967,420.514,219.034,419.856,221.631,422.722z"/>
			</g>
			<g id="POLYLINE_1061_">
				<path style="fill:#214A81;" d="M226.935,318.837c-0.233-1.441-0.484-2.878-0.754-4.313c-1.435-7.605-4.493-16.278-11.886-18.567
					c-4.13-1.279-8.686-0.12-12.448,2.009c-4.146,2.347-7.876,6.544-7.409,11.285c0.441,4.486,4.089,7.041,6.486,10.452
					c3.509,4.992,4.562,10.993,6.466,16.668c1.747,5.206,5.029,10.122,5.941,15.586c0.916,5.488-0.924,10.236-2.038,15.629
					c-1.241,6.01-9.587,55.412-3.965,56.607c4.577,0.972,8.925-2.825,13.65-2.443c-0.674-8.889-1.41-19.428,0.381-28.277
					c2.065-10.213,5.714-20.139,8.028-30.319c1.68-6.922,0.994-14.17,0.299-21.258C228.929,334.192,228.172,326.477,226.935,318.837
					z"/>
			</g>
			<path style="fill:#1E4375;" d="M210.602,310.807c5.846,0.998,10.938,4.444,15.824,7.806c-1.88-8.084-3.759-16.169-5.639-24.253
				c-0.105-0.452-20.082-2.841-21.575-2.098c-4.931,2.452-5.496,14.487-6.5,19.76C198.632,312.631,204.658,309.793,210.602,310.807z
				"/>
			<path style="fill:#FFB980;" d="M224.585,199.436l2.289,4.321c0.573,1.081-0.211,2.383-1.434,2.383h-2.151L224.585,199.436z"/>
			<g id="POLYLINE_1068_">
				<path style="fill:#FFB980;" d="M225.061,197.857c0.155-3.324,0.759-8.796-2.103-11.277c-2.564-2.223-7.231-1.435-9.826,0.183
					c-2.925,1.824-4.858,4.939-5.923,8.217c-1.065,3.278-1.351,6.75-1.63,10.186c-0.46,5.665-0.92,11.33-1.38,16.995
					c0.093-1.142,8.56,4.232,9.169,4.911c1.186-0.916,3.19-0.609,4.701-0.684c-1.413-3.041-1.233-6.601-0.582-9.873
					c0.108-0.542,0.262-1.12,0.687-1.474c0.561-0.468,1.377-0.387,2.102-0.478C226.434,213.789,224.881,201.711,225.061,197.857z"/>
			</g>
			<g id="POLYLINE_1053_">
				<path style="fill:#F2BF3D;" d="M226.499,234.909c1.668,5.457,1.585,11.148,2.704,16.694c0.721,3.575,5.018,7.736,4.697,11.052
					c-0.474,4.909-7.632,7.519-7.75,12.451c-0.03,1.266,0.555,2.452,0.985,3.644c2.006,5.549,1.35,11.548,1.01,17.304
					c-0.209,3.537,2.609,13.296-0.467,15.794c-1.945,1.579-13.724-1.838-16.521-2.125c-7.061-0.724-13.321,0.168-20.204,1.444
					c-3.408-8.436-0.51-15.087,0.711-23.86c1.409-10.122,1.571-20.419,0.459-30.579c-0.845-7.716-2.408-15.587-0.658-23.15
					c1.118-4.833,2.626-9.373,7.944-10.94c0.127-1.357,0.254-2.713,0.381-4.069c6.207-1.848,12.962-1.809,19.148,0.11
					c-0.431-0.134,0.206,4.511,0.41,4.964c0.616,1.363,1.775,2.161,2.788,3.256C224.251,229.185,225.591,231.939,226.499,234.909z"
					/>
			</g>
			<path style="fill:#EB8A2D;" d="M206.094,240.3c0.39,10.456,0.83,21.156,4.736,30.863c1.222,3.037,2.864,6.048,5.521,7.961
				c2.657,1.913,6.535,2.436,9.167,0.49c0.756-0.555-7.273-20.714-8.161-22.735C214.663,250.748,210.029,245.812,206.094,240.3z"/>
			<g id="POLYLINE_1060_">
				<path style="fill:#669EE3;" d="M205.454,435.414c0.628,0.277,1.412,0.386,2.279,0.409c6.486,0.173,13.064,0.148,19.554,0.079
					c1.993-0.021,3.997-0.031,5.982-0.217c0.845-0.079,1.827-0.184,2.523-0.73c1.052-0.827,0.982-2.329,0.075-3.23
					c-1.278-1.271-6.733-4.145-8.526-3.094c-0.238,0.14-0.42,0.358-0.63,0.537c-0.513,0.439-1.184,0.641-1.84,0.803
					c-3.296,0.814-6.698,0.838-10.033,0.263c-2.085-0.359-3.366-0.235-5.139-1.391c-0.628-0.41-4.566-2.646-4.218-3.641
					c-0.869,2.485-1.549,4.901-1.558,7.563C203.92,434.208,204.512,435,205.454,435.414z"/>
			</g>
			<g id="POLYLINE_1059_">
				<path style="fill:#214A81;" d="M229.529,180.072c-0.262,0.252-0.116,2.707-0.204,3.202c-0.029,0.175-0.058,0.349-0.107,0.514
					c-0.204,1.116-0.543,2.193-0.999,3.231c-0.078,0.175-0.155,0.339-0.233,0.485c-1.106,2.086-2.416,1.717-4.851,2.222
					c-2.416,0.505-3.968,2.814-5.249,4.929c-0.437,0.728-0.883,1.455-1.29,2.202c-0.873,1.552-1.62,3.163-1.989,4.9
					c-1.096-0.495-2.658-1.805-3.658-0.699c-2.27,2.513,0.747,4.007,2.707,4.541c-0.398,0-1.242,5.657-1.96,6.054
					c-0.32,0.184-0.699,0.223-1.058,0.262c-1.32,0.146-2.639,0.281-3.949,0.427c-0.864,0.087-1.747,0.175-2.581-0.048
					c-3.066-0.834-6.336-6.142-7.549-8.829c-0.796-1.766-1.3-3.667-1.504-5.598c-0.242-2.416-0.029-4.89,0.689-7.219
					c0.398-1.3,0.961-2.581,1.892-3.57c0.514-0.543,1.145-0.99,1.844-1.252c0.563-0.213,1.174-0.311,1.785-0.242
					c-1.077-6.84,11.265-7.937,15.553-6.685c2.154,0.631,4.162,1.737,6.346,2.28C225.338,181.731,227.89,181.614,229.529,180.072z"
					/>
			</g>
			<path style="fill:#3464A3;" d="M229.219,183.788c-0.204,1.116-0.543,2.193-0.999,3.231c-0.078,0.175-0.155,0.339-0.233,0.485
				c-1.106,2.086-2.416,1.717-4.851,2.222c-2.416,0.505-3.968,2.814-5.249,4.929c-0.437,0.728-0.883,1.455-1.29,2.202
				c-7.112,1.601-14.457,2.144-21.54,1.009c-0.242-2.416-0.029-4.89,0.689-7.219c0.398-1.3,0.961-2.581,1.892-3.57
				c0.514-0.543,1.145-0.99,1.844-1.252C209.203,188.746,220.021,188.115,229.219,183.788z"/>
			<g id="POLYLINE_1056_">
				<path style="fill:#FFB980;" d="M225.674,264.055c3.276-2.013,6.293-4.569,9.594-6.495c3.613-2.107,7.183-3.435,10.364-6.324
					c1.362-1.236,2.653-2.653,3.215-4.404c1.075-3.349-0.526-7.308,1.656-10.406c1.892-2.686,5.796-3.178,8.763-4.168
					c0.951,1.305,1.016,3.194,0.156,4.561c-0.068,0.108,2.246,4.339,2.087,5.535c-0.18,1.358-2.694,4.987-3.56,1.965
					c0.636,2.22-4.605,9.036-5.851,10.6c-3.323,4.173-6.726,8.293-10.487,12.083c-7.045,7.098-14.829,10.755-21.215,0.125
					C222.152,266.161,223.915,265.135,225.674,264.055z"/>
			</g>
			<g id="POLYLINE_1054_">
				<path style="fill:#F2BF3D;" d="M223.602,240.296c-1.218-3.481-2.257-9.184-6.55-9.855c-1.962-0.307-3.974,0.308-5.701,1.29
					c-3.248,1.848-5.699,5.048-6.635,8.666c-0.775,2.993-0.787,7.624,1.388,10.092c0.802,0.91,2.027,1.168,2.749,2.267
					c0.793,1.207,0.657,2.677,1.168,3.984c0.351,0.898,1.027,1.577,1.68,2.266c0.419,0.443,0.77,0.903,1.081,1.427
					c0.197,0.332,0.399,0.659,0.69,0.918c0.739,0.66,1.834,0.814,2.472,1.602c0.285,0.352,0.449,0.78,0.669,1.171
					c0.323,0.577,0.745,1.091,1.077,1.662c0.642,1.105,1.322,3.104,2.95,2.669c2.88-0.77,4.368-3.58,6.723-5.125
					c0.782-0.513,1.936-1.016,2.417-1.889c0.352-0.639,0.179-1.437-0.036-2.092c-0.345-1.047-0.965-1.659-1.731-2.412
					c-0.808-0.794-1.451-1.86-1.926-2.88c-0.606-1.301-0.777-2.75-1.08-4.142c-0.172-0.786-0.325-1.582-0.382-2.385
					c-0.06-0.846,0.005-1.693-0.013-2.539C224.578,243.372,224.133,241.814,223.602,240.296z"/>
			</g>
		</g>
		<path style="fill:#FFB980;" d="M233.164,243.488c0,0,1.62-3.177,3.08-4.076c1.459-0.899,5.731-2.913,5.756-0.759
			c0.025,2.154-4.417,1.937-4.417,1.937L233.164,243.488z"/>
	</g>
	<g>
		<g id="POLYLINE_493_">
			<path style="fill:#FFCCA3;" d="M449.411,271.266c-4.346,0.81-8.932,2.418-14.812,3.133c-5.948,0.711-11.995,1.202-17.76,2.927
				c-1.435,0.429-3.778,0.638-2.805,2.365c1.047,1.859,4.441,0.369,5.867,0.102c-2.124,0.398-4.906,3.273-7.042,4.187
				c-1.318,0.564-4.573,0.601-4.449,2.307c0.145,1.989,6.263,3.435,7.81,3.228c3.751-0.512,7.875-2.87,11.076-4.786
				c1.202-0.724,2.322-1.522,3.68-1.931c3.728-1.128,7.969-0.944,11.824-1.129c9.641-0.452,15.584-3.244,23.369-8.478
				C460.258,272.684,455.588,270.118,449.411,271.266z"/>
		</g>
		<path style="fill:#FFCCA3;" d="M462.456,261.006c-2.914,3.637-4.859,5.455-8.669,8.039c-1.705,1.157-3.202,3.025-2.962,5.071
			c0.207,1.77,1.724,3.194,3.433,3.7c1.709,0.506,3.56,0.233,5.257-0.314c6.041-1.95,36.236-27.845,22.221-34.477
			c-4.891-2.314-7.418,2.596-9.815,5.873c-3.013,4.119-6.238,8.075-9.425,12.058C462.483,260.973,462.469,260.99,462.456,261.006z"
			/>
		<g id="POLYLINE_490_">
			<path style="fill:#214A81;" d="M469.479,248.243c-1.185,1.79-1.915,3.652-0.718,6.163c0.736,1.545,2.047,2.726,3.326,3.864
				c2.229,1.984,4.457,3.969,6.686,5.953c2.929-2.012,4.366-5.333,6.324-8.145c2.116-3.04,4.055-6.082,5.102-9.679
				c0.845-2.902,1.359-6.15,0.707-9.141c-0.85-3.873-3.122-8.258-8.012-6.479c-0.977,0.355-1.781,1.061-2.529,1.783
				C475.682,237.083,473.01,242.912,469.479,248.243z"/>
		</g>
	</g>
	<g>
		<path style="fill:#EB8A2D;" d="M687.925,324.514c-2.905,6.385-15.734,6.796-28.656,0.918
			c-12.922-5.878-21.042-15.82-18.137-22.204c2.905-6.385,15.734-6.796,28.656-0.918
			C682.709,308.187,690.829,318.129,687.925,324.514z"/>
		
			<rect x="640.07" y="308.124" transform="matrix(0.9102 0.4141 -0.4141 0.9102 188.591 -247.7545)" style="fill:#EB8A2D;" width="51.407" height="6.016"/>
		<path style="fill:#F2BF3D;" d="M689.965,320.029c-2.905,6.385-15.734,6.796-28.656,0.918
			c-12.922-5.878-21.042-15.819-18.137-22.204c2.905-6.385,15.734-6.796,28.656-0.918
			C684.749,303.702,692.87,313.644,689.965,320.029z"/>
		<path style="fill:#EB8A2D;" d="M683.323,317.007c-2.08,4.573-11.267,4.867-20.52,0.657c-9.253-4.209-15.068-11.328-12.988-15.901
			c2.08-4.572,11.267-4.867,20.52-0.657C679.588,305.316,685.402,312.435,683.323,317.007z"/>
		<path style="fill:#EB702D;" d="M668.981,304.082c8.224,3.741,13.727,9.78,13.39,14.287c0.397-0.402,0.721-0.855,0.952-1.363
			c2.08-4.572-3.735-11.691-12.988-15.901c-9.253-4.209-18.44-3.915-20.52,0.657c-0.231,0.508-0.359,1.049-0.402,1.613
			C652.588,300.161,660.756,300.341,668.981,304.082z"/>
	</g>
	<rect x="449.758" y="157.901" style="fill:#5679CC;" width="0.525" height="0.525"/>
	<g>
		<path style="fill:#F2BF3D;" d="M535.647,99.905c0,9.175-3.207,17.602-8.56,24.221c-8.08,9.977-12.81,22.243-12.81,35.089v1.871
			h-34.34v-1.88c0-9.808-2.646-19.375-7.598-27.721c-1.443-2.45-3.091-4.801-4.926-7.02c-5.808-7.011-9.184-16.123-8.819-26.02
			c0.748-19.99,17.023-36.291,37.013-37.048c17.754-0.677,32.968,10.672,38.144,26.546
			C534.979,91.709,535.647,95.727,535.647,99.905z"/>
		<path style="fill:#EB8A2D;" d="M535.647,99.905c0,9.175-3.207,17.602-8.56,24.221c-8.08,9.977-12.81,22.243-12.81,35.089v1.871
			h-34.34v-1.88c0-9.808-2.646-19.375-7.598-27.721c2.85,0.864,5.247,1.594,6.182,1.639c9.46,0.472,19.063-2.886,26.777-8.24
			c13.282-9.211,22.341-22.359,28.452-36.941C534.979,91.709,535.647,95.727,535.647,99.905z"/>
		<path style="fill:#669EE3;" d="M514.169,168.798h-33.063c-2.291,0-4.148-1.857-4.148-4.148v-0.781
			c0-2.291,1.857-4.148,4.148-4.148h33.063c2.291,0,4.148,1.857,4.148,4.148v0.781C518.317,166.941,516.46,168.798,514.169,168.798z
			"/>
		<path style="fill:#5679CC;" d="M510.848,186.067h-26.42c-2.075,0-3.757-1.682-3.757-3.757v-1.563c0-2.075,1.682-3.757,3.757-3.757
			h26.42c2.075,0,3.757,1.682,3.757,3.757v1.563C514.605,184.385,512.923,186.067,510.848,186.067z"/>
		<path style="fill:#5679CC;" d="M514.169,177.874h-33.063c-2.291,0-4.148-1.857-4.148-4.148v-0.781
			c0-2.291,1.857-4.148,4.148-4.148h33.063c2.291,0,4.148,1.857,4.148,4.148v0.781C518.317,176.017,516.46,177.874,514.169,177.874z
			"/>
		<polyline style="fill:none;stroke:#FFFFFF;stroke-miterlimit:10;" points="499.64,159.721 511.941,110.981 482.819,110.981 
			495.563,159.721 		"/>
	</g>
	<g>
		<path style="fill:#9FDAE0;" d="M270.428,158.794h-73.022c-7.41,0-13.417-6.007-13.417-13.417v-31.832
			c0-7.41,6.007-13.417,13.417-13.417h73.022c7.41,0,13.417,6.007,13.417,13.417v31.832
			C283.845,152.787,277.838,158.794,270.428,158.794z"/>
		<polygon style="fill:#9FDAE0;" points="247.35,158.84 267.52,175.079 267.52,158.794 		"/>
		<circle style="fill:#FFFFFF;" cx="206.094" cy="137.603" r="6.639"/>
		<circle style="fill:#FFFFFF;" cx="234.13" cy="137.603" r="6.639"/>
		<circle style="fill:#FFFFFF;" cx="262.166" cy="137.603" r="6.639"/>
	</g>
</g>
</svg>
